HIERARCHY
ROOT ui
{
	 OFFSET 0 0 0
	 CHANNELS 3 XPosition YPosition Z Position
	 EndSite
	 {
	 OFFSET 0 -1 0
	 }
}
ROOT li
{
	 OFFSET 0 0 0
	 CHANNELS 3 XPosition YPosition Z Position
	 EndSite
	 {
	 OFFSET 0 -1 0
	 }
}
ROOT ul
{
	 OFFSET 0 0 0
	 CHANNELS 3 XPosition YPosition Z Position
	 EndSite
	 {
	 OFFSET 0 -1 0
	 }
}
ROOT ll
{
	 OFFSET 0 0 0
	 CHANNELS 3 XPosition YPosition Z Position
	 EndSite
	 {
	 OFFSET 0 -1 0
	 }
}
ROOT tt
{
	 OFFSET 0 0 0
	 CHANNELS 3 XPosition YPosition Z Position
	 EndSite
	 {
	 OFFSET 0 -1 0
	 }
}
ROOT tb
{
	 OFFSET 0 0 0
	 CHANNELS 3 XPosition YPosition Z Position
	 EndSite
	 {
	 OFFSET 0 -1 0
	 }
}
ROOT td
{
	 OFFSET 0 0 0
	 CHANNELS 3 XPosition YPosition Z Position
	 EndSite
	 {
	 OFFSET 0 -1 0
	 }
}
ROOT v
{
	 OFFSET 0 0 0
	 CHANNELS 3 XPosition YPosition Z Position
	 EndSite
	 {
	 OFFSET 0 -1 0
	 }
}
ROOT bn
{
	 OFFSET 0 0 0
	 CHANNELS 3 XPosition YPosition Z Position
	 EndSite
	 {
	 OFFSET 0 -1 0
	 }
}
MOTION
Frames: 10
Frame Time: 0.002
0.013269956588745118	2.8543800115585325E-4	0		0.42668280029296873	-2.36353271484375	0		-1.076032958984375	-0.003747359991073608	0		-0.8533709716796875	-2.30370556640625	0		0.9947659301757813	-0.6296365356445313	0		2.544293701171875	0.17427755737304687	0		4.24151025390625	0.26706857299804687	0		5.4995341796875	0.007645187854766845	0		-0.089811767578125	5.94757373046875	0		
0.021414730072021486	0.00672946310043335	0		0.4048546142578125	-2.356480224609375	0		-1.0668883056640626	0.0026668550968170167	0		-0.8123132934570313	-2.302933349609375	0		1.1926558837890624	-0.6380116577148438	0		2.53627880859375	0.17306816101074218	0		4.257630859375	0.2723890075683594	0		5.5005390625	0.007280351161956787	0		-0.08885936737060547	5.94715966796875	0		
0.010471738815307618	0.0045685009956359865	0		0.4210590515136719	-2.35318115234375	0		-1.0657933349609374	0.0022489941120147705	0		-0.8600159912109375	-2.2943623046875	0		0.9999600219726562	-0.626492431640625	0		2.55636767578125	0.17231640625	0		4.25872216796875	0.2720433349609375	0		5.4958369140625	0.017070383071899415	0		-0.08784505462646484	5.9467548828125	0		
-0.06043224334716797	0.001629727005958557	0		0.40310675048828126	-2.36117822265625	0		-1.0727706298828126	-0.004996857166290283	0		-0.821880126953125	-2.298510986328125	0		1.1810970458984376	-0.63048583984375	0		2.561626220703125	0.17689254760742187	0		4.25575927734375	0.265813720703125	0		5.49283837890625	0.008863680839538575	0		-0.10198951721191406	5.93666845703125	0		
0.01773931884765625	-0.0012903809547424316	0		0.3856932983398437	-2.345161376953125	0		-1.0756429443359374	-0.009311017036437988	0		-0.859592529296875	-2.29711669921875	0		0.9962155151367188	-0.6340892333984375	0		2.539733642578125	0.1720433349609375	0		4.24596240234375	0.26576083374023435	0		5.48404736328125	0.008818862915039062	0		-0.1009174575805664	5.936294921875	0		
0.014074788093566895	0.003459342002868652	0		0.4077060546875	-2.359919677734375	0		-1.062190185546875	0.0010663510560989379	0		-0.8094662475585938	-2.306472412109375	0		1.072351318359375	-0.6409168701171875	0		2.545821533203125	0.16466355895996093	0		4.25030908203125	0.2714651489257813	0		5.50523681640625	0.006217309951782227	0		-0.09788602447509766	5.93390234375	0		
0.03533357620239258	0.0037319409847259523	0		0.41516311645507814	-2.353355224609375	0		-1.1308330078125	0.007107915878295898	0		-0.873916259765625	-2.29450439453125	0		1.0109880981445312	-0.6219503173828125	0		2.5652958984375	0.17605458068847657	0		4.245404296875	0.2643952941894531	0		5.49064306640625	0.014384801864624024	0		-0.06741682434082032	5.95398681640625	0		
0.028584659576416014	0.004591695785522461	0		0.403560791015625	-2.349382080078125	0		-1.0597177734375	3.65898996591568E-4	0		-0.7797019653320313	-2.300697265625	0		1.1999224853515624	-0.6399737548828125	0		2.562419921875	0.17092733764648438	0		4.2647607421875	0.27088644409179685	0		5.507708984375	0.005964170932769775	0		-0.09777727508544921	5.93530712890625	0		
-0.05125054168701172	0.003935687065124512	0		0.41162408447265625	-2.3607783203125	0		-1.058529052734375	4.784199967980385E-5	0		-0.8621832275390625	-2.288328857421875	0		1.0671241455078124	-0.6395238647460938	0		2.525609375	0.17151539611816408	0		4.24596240234375	0.27218414306640626	0		5.4889013671875	0.0063126378059387206	0		-0.09585012817382813	5.93400830078125	0		
-0.04829128646850586	-0.004353190898895264	0		0.4108099365234375	-2.3629677734375	0		-1.0696265869140624	-0.011006782531738282	0		-0.8172289428710937	-2.302489990234375	0		1.19922607421875	-0.6433339233398437	0		2.56471337890625	0.17062350463867187	0		4.2587880859375	0.25789031982421873	0		5.50005810546875	0.008111323356628418	0		-0.09597742462158203	5.934775390625	0		
